<?xml version="1.0" encoding="UTF-8"?>
<svg id="Layer_2" data-name="Layer 2" xmlns="http://www.w3.org/2000/svg" xmlns:xlink="http://www.w3.org/1999/xlink" viewBox="0 0 352.06 272.13">
  <defs>
    <style>
      .cls-1 {
        fill: #025e6e;
      }

      .cls-1, .cls-2, .cls-3, .cls-4, .cls-5, .cls-6, .cls-7, .cls-8, .cls-9, .cls-10, .cls-11, .cls-12, .cls-13, .cls-14, .cls-15, .cls-16, .cls-17, .cls-18, .cls-19, .cls-20, .cls-21, .cls-22, .cls-23, .cls-24 {
        stroke-width: 0px;
      }

      .cls-2 {
        fill: #168091;
      }

      .cls-3 {
        fill: #4e4e8d;
      }

      .cls-4 {
        fill: url(#linear-gradient);
      }

      .cls-5 {
        fill: #b5662d;
      }

      .cls-6 {
        fill: #fbe197;
      }

      .cls-7 {
        fill: #6e6cbf;
      }

      .cls-8 {
        fill: #febf76;
      }

      .cls-9 {
        fill: #3e4079;
      }

      .cls-10 {
        fill: #3193a4;
      }

      .cls-11 {
        fill: #f1ebcc;
      }

      .cls-12 {
        fill: #13161d;
      }

      .cls-13 {
        fill: #56cbd8;
      }

      .cls-14 {
        fill: #eee4d5;
      }

      .cls-15 {
        fill: #deeadb;
      }

      .cls-16 {
        fill: #bf7644;
      }

      .cls-17 {
        fill: #5d5da7;
      }

      .cls-18 {
        fill: #27264f;
      }

      .cls-19 {
        fill: #171625;
      }

      .cls-20 {
        fill: #fdfdfd;
      }

      .cls-21 {
        fill: #f0a958;
      }

      .cls-22 {
        fill: #99207c;
      }

      .cls-23 {
        fill: #1f1c37;
      }

      .cls-24 {
        fill: #8ff3f5;
      }
    </style>
    <linearGradient id="linear-gradient" x1="76.59" y1="67.79" x2="153.93" y2="91.84" gradientUnits="userSpaceOnUse">
      <stop offset="0" stop-color="#fae3aa"/>
      <stop offset="1" stop-color="#fdc781"/>
    </linearGradient>
  </defs>
  <g id="Layer_1-2" data-name="Layer 1">
    <g>
      <path class="cls-20" d="m172.72.02c71.26-.86,146.44,34.76,172.25,104.75,11.1,30.09,9.21,51.49-6,79.5-29.09,53.56-95.33,85.7-154.75,87.75-61.42,2.11-128.39-24.31-163.75-76.25-26.75-39.3-26.78-72.09-3-113C48.3,29.72,112.94.73,172.72.02Z"/>
      <g>
        <g>
          <g>
            <g>
              <path class="cls-16" d="m291.97,98.02c.06.14-.2.9.5,2.5.14.33-.36,2.16,1,3l3,19.5c-.23,8.36.7,16.78-1,25v1c-31.97,14.66-57.9,18.31-93,19.5l-20-.75c.36-6.33-3.71-57.69-6.25-59.25-.2-.12-1.05-.08-1.25.25-1.29,7.07,2.19,56.11.5,58.5-.32.45-4.51,1.57-4.5-2.75,2.02-42.23-14.64-133.14,41.5-145,26.56,7.77,49.92,24.34,65,47.75,6.17,9.58,10.13,20.29,14.5,30.75Z"/>
              <path class="cls-5" d="m235.22,63.02l13.25,25.75c7.44,16.38,16.73,45.59,17,63,.14,9.08-.93,8.46-11.5,9.5,1.54-34.01-13.72-65.36-18.75-98.25Z"/>
            </g>
            <path class="cls-5" d="m202.47,168.52c-10.5.35-21-.12-31.5-.5v-3.5c-.01,4.32,4.18,3.2,4.5,2.75,1.69-2.39-1.79-51.43-.5-58.5.2-.33,1.05-.37,1.25-.25,2.54,1.56,6.61,52.92,6.25,59.25l20,.75Z"/>
          </g>
          <g>
            <g>
              <path class="cls-4" d="m175.97,14.02c2.95,1.24,2.41,18.71,2,21.25-.15.9-5.63,15.04-6.5,17-9.79,22.18-29.87,42.52-41.5,64-3.29,6.08-18.09,42.58-18,45,.01.32,1.37.02,1,1.25-9.41-1.78-20.41-4.91-29.5-8,.2-16.6,3.53-30.41,9.5-45.75,2.51-6.44,11.08-18.15,3.75-18.25-3.35-.05-12.59,23.26-13.75,27.25-3.23,11.06-4.65,22.76-5,34.25-.32-.12-2.66-.29-3.75-.5-6.67-2.76-9.27-4.95-14.25-8-.69-7.59-2.78-16.45-2.5-24,.07-1.86,2.4-15.29,3-17.5.11-.39,1.5-3.33,3-7.5C81.52,44.26,122.17,14.28,175.97,14.02Z"/>
              <path class="cls-20" d="m165.22,23.52c1.8.21,2.36,3.38,1,5-.37.45-8.91,4.02-10.5,5-13.35,8.2-25.54,18.33-36.25,29.75-1.31,1.39-5.75,8.12-6.25,8.25-.49.13-3.57-1.63-3.75-2.25-1.77-6.24,28.35-32.11,40.25-38.75,1.89-1.05,14.64-7.1,15.5-7Z"/>
            </g>
            <path class="cls-20" d="m83.47,154.52c-5.97-2.03-5.22-2.39-5.5-2.5.35-11.49,1.77-23.19,5-34.25,1.16-3.99,10.4-27.3,13.75-27.25,7.33.1-1.24,11.81-3.75,18.25-5.97,15.34-9.3,29.15-9.5,45.75Z"/>
            <g>
              <path class="cls-8" d="m212.47,19.52c-56.14,11.86-39.48,102.77-41.5,145v3.5c-19.32-.69-38.97-1.91-58-5.5.37-1.23-.99-.93-1-1.25-.09-2.42,14.71-38.92,18-45,11.63-21.48,31.71-41.82,41.5-64,.87-1.96,6.35-16.1,6.5-17,.41-2.54.95-20.01-2-21.25,13.43-.07,23.76,1.77,36.5,5.5Z"/>
              <path class="cls-21" d="m168.72,153.52l1.25.25-.25,12.75c-35.73-.81-29.48.51-1-13Z"/>
            </g>
          </g>
        </g>
        <g>
          <path class="cls-12" d="m72.22,219.02c7.54-1.04,7.41,10.18,1.5,11-8.13,1.13-7.75-10.14-1.5-11Z"/>
          <path class="cls-20" d="m307.47,136.52c-2.56,4.27-7.48,9.38-12,11.5,1.7-8.22.77-16.64,1-25,4.41,3.83,8.59,8.16,11,13.5Z"/>
          <path class="cls-20" d="m59.97,143.52c-3.45-2.12-11.59-5.65-13-10l10.5-14c-.28,7.55,1.81,16.41,2.5,24Z"/>
          <g>
            <g>
              <path class="cls-9" d="m149.47,207.52c8.41.6,17.09,1.29,25.5,1.5.02,4.99.17,10.2-1.5,15-3.84,11.06-22.43,22.08-33.5,23.5-1.86.24-3.93-.49-4,.5-7.18-2.33-13.87-5.41-20.5-9,.41-1.93-.15,1.32,4.75-2,6.77-4.58,18.79-21.78,22.25-30,2.31.2,4.68.34,7,.5Z"/>
              <g>
                <path class="cls-19" d="m283.97,191.02c-2.08,3.54-4.17,7.11-6.5,10.5l-18.5,4c-.97.09-2.05-.13-3,0-20.76,2.93-59.57,4.03-81,3.5-8.41-.21-17.09-.9-25.5-1.5,1.8-1.99-4.89-5.34-5-5.75-.15-.53,1.67-1.79.25-2.75-1.18-.79-17.04-1.06-21-2-.37-.09-.25-.66-.25-1,13.73,1.69,27.69,2.94,41.5,3.5,39.88,1.63,79.89-.27,119-8.5Z"/>
                <path class="cls-23" d="m122.47,196.02c.32.04.68-.04,1,0,0,.34-.12.91.25,1,3.96.94,19.82,1.21,21,2,1.42.96-.4,2.22-.25,2.75.11.41,6.8,3.76,5,5.75-2.32-.16-4.69-.3-7-.5-15.78-1.4-32.01-3.53-47.5-7-3.6-.81-7.41-2.02-11-3-5.04-1.37-9.99-3.03-15-4.5-1.4-2.27-2.86-4.59-4-7,11.53,2.87,45.23,8.95,57.5,10.5Z"/>
              </g>
              <path class="cls-17" d="m96.97,209.02c-.27,1.03-5.03,12.04-7,11-3.44-3.42-6-6.73-9-10.5,2.45-3.16,4.48-6.88,4-11,3.21,3.22,8.87,6.81,12,10.5Z"/>
              <path class="cls-7" d="m83.97,197.02c.25.45.66,1.16,1,1.5.48,4.12-1.55,7.84-4,11-4.42-5.56-8.26-10.96-12-17,5.01,1.47,9.96,3.13,15,4.5Z"/>
              <g>
                <path class="cls-18" d="m277.47,201.52c-31.34,45.56-89.25,63.43-141.5,46.5.07-.99,2.14-.26,4-.5,1.43,2.33,9.63,2.86,13.25,3.5.4.07.1.93.5,1,1.69.27,9.02.48,11.5.5.4,0-.62,1.33,7.5,0,1.56-.84,1.59-25.07.75-28.5,1.67-4.8,1.52-10.01,1.5-15,21.43.53,60.24-.57,81-3.5-4.39,8.01,10.72,5.23,3,0l18.5-4Z"/>
                <path class="cls-18" d="m139.97,247.52c11.07-1.42,29.66-12.44,33.5-23.5.84,3.43.81,27.66-.75,28.5-8.12,1.33-7.1,0-7.5,0-2.48-.02-9.81-.23-11.5-.5-.4-.07-.1-.93-.5-1-3.62-.64-11.82-1.17-13.25-3.5Z"/>
              </g>
              <path class="cls-17" d="m258.97,205.52c7.72,5.23-7.39,8.01-3,0,.95-.13,2.03.09,3,0Z"/>
              <path class="cls-9" d="m94.97,200.02c1.61,3,2.88,5.63,2,9-3.13-3.69-8.79-7.28-12-10.5-.34-.34-.75-1.05-1-1.5,3.59.98,7.4,2.19,11,3Z"/>
              <g>
                <path class="cls-3" d="m142.47,207.02c-3.46,8.22-15.48,25.42-22.25,30-4.9,3.32-4.34.07-4.75,2-10.09-5.46-17.36-10.9-25.5-19,1.97,1.04,6.73-9.97,7-11,.88-3.37-.39-6-2-9,15.49,3.47,31.72,5.6,47.5,7Z"/>
                <path class="cls-22" d="m127.22,208.02c3.67-.29,4.19,5.34,2,6-3.84,1.16-6.83-5.62-2-6Z"/>
              </g>
            </g>
            <g>
              <path class="cls-10" d="m283.97,191.02c-39.11,8.23-79.12,10.13-119,8.5.34-2.02-3.4-.2-3.25-1.5,16.11-1.49,52.53-8.36,66.75-13-.11.42,1.14,1.96,1.25,2,7.78,2.63,47.81-4.66,57.5-7.5,26.44-7.74,54.56-27.62,42.25-58.75-.26-.66-3.23-6.71-3.5-7-2.64-2.86-32.09-15.56-33-14-.06.1.96.67,1,1.25-.07-.04-.74.07-1.5-.5-.7-1.6-.44-2.36-.5-2.5,24.81,7.18,71.29,28.11,49.5,60.75-11.47,17.18-38.57,26.66-57.5,32.25Z"/>
              <path class="cls-10" d="m323.47,135.02c-9.38,4.57-18.51,9.65-28,14v-1c4.52-2.12,9.44-7.23,12-11.5.51-.85,1.09-1.56,1.5-2.5,5.63-12.95-4.84-15.81-5.5-18.75-.07-.33,1.91-.85,3.5-4.75,6.68,5.59,16.94,14.92,16.5,24.5Z"/>
              <path class="cls-2" d="m293.97,101.02c4.68,2.65,8.88,6.05,13,9.5-1.59,3.9-3.57,4.42-3.5,4.75.66,2.94,11.13,5.8,5.5,18.75-2.39,1.35-1.43-2.57-4.5-6.75,1.42-15.42-7-14.8-11-23.75-1.36-.84-.86-2.67-1-3,.76.57,1.43.46,1.5.5Z"/>
              <path class="cls-1" d="m308.97,134.02c-.41.94-.99,1.65-1.5,2.5-2.41-5.34-6.59-9.67-11-13.5l-3-19.5c4,8.95,12.42,8.33,11,23.75,3.07,4.18,2.11,8.1,4.5,6.75Z"/>
              <path class="cls-1" d="m60.47,102.02c-.6,2.21-2.93,15.64-3,17.5l-10.5,14c-3.6-11.14,14.89-32.47-2-15.5-.26-.23-.76.87-1,.25-.58-1.48,1.1-3.99,2-5.25,1.85-2.59,11.02-9.26,14.5-11Z"/>
              <path class="cls-10" d="m228.47,185.02c.43-.14,1.79-.66,1.5-1.5,16.75-2.35,49.28-12.05,64.25-20,8.56-4.55,28.76-18.03,29.25-28.5.44-9.58-9.82-18.91-16.5-24.5-4.12-3.45-8.32-6.85-13-9.5-.04-.58-1.06-1.15-1-1.25.91-1.56,30.36,11.14,33,14,.27.29,3.24,6.34,3.5,7,12.31,31.13-15.81,51.01-42.25,58.75-9.69,2.84-49.72,10.13-57.5,7.5-.11-.04-1.36-1.58-1.25-2Z"/>
              <path class="cls-13" d="m229.97,183.52c.29.84-1.07,1.36-1.5,1.5-14.22,4.64-50.64,11.51-66.75,13-.15,1.3,3.59-.52,3.25,1.5-13.81-.56-27.77-1.81-41.5-3.5-.32-.04-.68.04-1,0,.66-1.04-4.52-1.49-1.75-2,.13-.02.33.81,2.5.5,19.64-2.8,37.93-5.54,57.75-7.5,15.47-1.53,33.96-1.39,49-3.5Z"/>
              <path class="cls-24" d="m45.97,113.02c-.9,1.26-2.58,3.77-2,5.25.24.62.74-.48,1-.25.21.18,1.69-.48,1.5.75-7.92,10.44-6.11,23.4,3.5,32,1.09.97,7.03,3.2,6.5,4.5-12.99-3.98-25.32-14.98-23-30,.8-5.16,9.47-15.91,12.5-12.25Z"/>
              <g>
                <path class="cls-24" d="m63.47,94.52c-1.5,4.17-2.89,7.11-3,7.5-3.48,1.74-12.65,8.41-14.5,11-3.03-3.66-11.7,7.09-12.5,12.25-2.32,15.02,10.01,26.02,23,30,.53-1.3-5.41-3.53-6.5-4.5-9.61-8.6-11.42-21.56-3.5-32,.19-1.23-1.29-.57-1.5-.75,16.89-16.97-1.6,4.36,2,15.5,1.41,4.35,9.55,7.88,13,10,4.98,3.05,7.58,5.24,14.25,8,1.09.21,3.43.38,3.75.5.28.11-.47.47,5.5,2.5,9.09,3.09,20.09,6.22,29.5,8,19.03,3.59,38.68,4.81,58,5.5,10.5.38,21,.85,31.5.5,35.1-1.19,61.03-4.84,93-19.5,9.49-4.35,18.62-9.43,28-14-.49,10.47-20.69,23.95-29.25,28.5-14.97,7.95-47.5,17.65-64.25,20-15.04,2.11-33.53,1.97-49,3.5l-.25-2-54.5-4c-12.37-1.41-23.26-4.56-35-4.5-4.24,9.07-6.39,4.12-7.5,4-15.72-1.75-12.56-2.13-25.75-8,.22-.59.69-.94,1-1.5,3.92-.69.92-5.52.5-5.75-.97-.54-3.71-.66-4,1.75-1.19.4-.96,1.45-1.25,1.5-2.11.39-15.69-5.42-18.75-7-.03-.02.11-.11-.5-.5-.12-.08-.96-1.61-2.5-1.5-.18-.38.28-1.98-.5-3.25-.63-1.03-12.23-7.73-13.5-19-.53-4.69.69-11.09,2.5-15.5,2.24-5.44,7.49-9.53,9.5-14.75,10.6-6.06,21.13-9.63,33-12.5Z"/>
                <path class="cls-6" d="m85.22,173.52c4.67-1.35,5.79,6.28,2,7-5.14.97-5.78-5.91-2-7Z"/>
                <path class="cls-24" d="m58.97,171.02c2.42-4.33.46-5.33-3.5-4,.29-2.41,3.03-2.29,4-1.75.42.23,3.42,5.06-.5,5.75Z"/>
              </g>
              <g>
                <path class="cls-24" d="m32.47,159.52c.46.99,1.48,1.41,2.5,1.5.61.39.47.48.5.5,5.37,3.3,10.31,6.2,16.75,7,2.23,1.05,2.47,2.54,5.75,4,13.19,5.87,10.03,6.25,25.75,8,1.11.12,3.26,5.07,7.5-4,11.74-.06,22.63,3.09,35,4.5l54.5,4,.25,2c-19.82,1.96-38.11,4.7-57.75,7.5-2.17.31-2.37-.52-2.5-.5-2.77.51,2.41.96,1.75,2-12.27-1.55-45.97-7.63-57.5-10.5-19.31-4.81-56.95-19.98-59.5-43,1.58-.35,1.4,4.3,3.5,8.25,5,9.38,13.63,15.95,23.5,8.75Z"/>
                <path class="cls-24" d="m55.47,167.02c-.31,2.54.44,4.54,3.5,4-.31.56-.78.91-1,1.5-3.28-1.46-3.52-2.95-5.75-4-6.44-.8-11.38-3.7-16.75-7,3.06,1.58,16.64,7.39,18.75,7,.29-.05.06-1.1,1.25-1.5Z"/>
                <path class="cls-24" d="m34.97,161.02c-1.02-.09-2.04-.51-2.5-1.5,1.54-.11,2.38,1.42,2.5,1.5Z"/>
                <path class="cls-15" d="m97.22,177.52c4.43-1.2,5.69,5.29,2,6-4.3.83-4.83-5.23-2-6Z"/>
              </g>
              <g>
                <path class="cls-24" d="m32.47,159.52c-9.87,7.2-18.5.63-23.5-8.75-2.1-3.95-1.92-8.6-3.5-8.25-1.86-16.79,11.85-27.99,25-35.5-2.01,5.22-7.26,9.31-9.5,14.75-1.81,4.41-3.03,10.81-2.5,15.5,1.27,11.27,12.87,17.97,13.5,19,.78,1.27.32,2.87.5,3.25Z"/>
                <path class="cls-14" d="m28.72,156.52c3.25-1.12,3.49,3.28,2,4-2.63,1.26-4.71-3.07-2-4Z"/>
              </g>
              <path class="cls-11" d="m58.97,171.02c-3.06.54-3.81-1.46-3.5-4,3.96-1.33,5.92-.33,3.5,4Z"/>
            </g>
          </g>
        </g>
      </g>
    </g>
  </g>
</svg>
